<svg version="1.1" id="Layer_1" xmlns="http://www.w3.org/2000/svg" x="0" y="0" viewBox="0 0 283.46 283.46" xml:space="preserve"><style>.st1{fill:#fff}</style><path fill="#a7a9ac" d="M0-.3h283.77v283.77H0z"/><path d="M141.73 0L0 283.46h283.46z"/><path class="st1" d="M68.85 202.94v14.89c0 3.37 1.02 4.38 2.18 4.38 1.29 0 2.21-.92 2.21-4.38v-14.89h4.45v14.11c0 5.88-2.21 9.08-6.63 9.08-4.79 0-6.66-3.3-6.66-9.04v-14.14h4.45zM81.54 225.85v-22.91h4.08l3.54 8.97c.68 1.77 1.8 4.73 2.45 6.7h.07c-.14-2.41-.44-6.39-.44-10.61v-5.07h3.91v22.91h-4.08l-3.5-8.7c-.75-1.94-1.8-4.83-2.31-6.9h-.07c.1 2.31.27 5.85.27 10.44v5.17h-3.92zM99.08 203.28c1.12-.27 2.75-.44 4.52-.44 2.89 0 4.9.68 6.36 2.04 1.97 1.77 2.99 4.79 2.99 9.25 0 4.62-1.19 7.92-3.2 9.69-1.53 1.5-3.81 2.21-7 2.21-1.39 0-2.79-.14-3.67-.24v-22.51zm4.45 19.04c.2.07.54.07.78.07 2.14 0 4.01-2.11 4.01-8.43 0-4.69-1.22-7.55-3.91-7.55-.31 0-.61 0-.88.1v15.81zM120.23 202.94v22.91h-4.45v-22.91h4.45zM123.69 221.29c.92.51 2.48.88 3.77.88 2.11 0 3.13-1.09 3.13-2.58 0-1.67-1.02-2.48-2.96-3.74-3.13-1.9-4.32-4.32-4.32-6.39 0-3.67 2.45-6.73 7.24-6.73 1.5 0 2.92.41 3.6.82l-.71 3.84c-.65-.41-1.63-.78-2.92-.78-1.9 0-2.82 1.16-2.82 2.38 0 1.36.68 2.07 3.16 3.57 3.03 1.83 4.15 4.15 4.15 6.56 0 4.18-3.09 6.94-7.58 6.94-1.84 0-3.64-.48-4.39-.92l.65-3.85zM148.58 225.51c-.65.31-1.9.54-3.47.54-5.85 0-8.64-4.83-8.64-11.32 0-8.64 4.79-12 9.25-12 1.56 0 2.65.31 3.09.61l-.75 3.74c-.51-.24-1.09-.44-2.07-.44-2.52 0-4.79 2.18-4.79 7.85 0 5.47 2.07 7.62 4.79 7.62.75 0 1.6-.17 2.14-.34l.45 3.74zM151.03 202.94h4.45v19.14h5.88v3.77h-10.33v-22.91zM176.56 213.99c0 8.63-3.06 12.14-7.41 12.14-5.2 0-7.24-5.51-7.24-11.8 0-6.26 2.48-11.66 7.55-11.66 5.54 0 7.1 6.08 7.1 11.32zm-10.03.4c0 5.2.99 7.85 2.79 7.85 1.87 0 2.58-3.4 2.58-8.06 0-4.01-.61-7.65-2.62-7.65-1.76.01-2.75 2.93-2.75 7.86zM178.88 221.29c.92.51 2.48.88 3.77.88 2.11 0 3.13-1.09 3.13-2.58 0-1.67-1.02-2.48-2.96-3.74-3.13-1.9-4.32-4.32-4.32-6.39 0-3.67 2.45-6.73 7.24-6.73 1.5 0 2.92.41 3.6.82l-.71 3.84c-.65-.41-1.63-.78-2.92-.78-1.9 0-2.82 1.16-2.82 2.38 0 1.36.68 2.07 3.16 3.57 3.03 1.83 4.15 4.15 4.15 6.56 0 4.18-3.09 6.94-7.58 6.94-1.84 0-3.64-.48-4.39-.92l.65-3.85zM202.47 215.79h-5.24v6.19h5.92v3.88h-10.37v-22.91h9.96v3.88h-5.51v5.27h5.24v3.69zM206.18 203.28c1.12-.27 2.75-.44 4.52-.44 2.89 0 4.9.68 6.36 2.04 1.97 1.77 2.99 4.79 2.99 9.25 0 4.62-1.19 7.92-3.2 9.69-1.53 1.5-3.81 2.21-7 2.21-1.39 0-2.79-.14-3.67-.24v-22.51zm4.45 19.04c.2.07.54.07.78.07 2.14 0 4.01-2.11 4.01-8.43 0-4.69-1.22-7.55-3.91-7.55-.31 0-.61 0-.88.1v15.81zM95.14 232.94v22.91h-4.45v-22.91h4.45zM99.11 233.28c1.12-.27 2.75-.44 4.52-.44 2.89 0 4.9.68 6.36 2.04 1.97 1.77 2.99 4.79 2.99 9.25 0 4.62-1.19 7.92-3.2 9.69-1.53 1.5-3.81 2.21-7 2.21-1.39 0-2.79-.14-3.67-.24v-22.51zm4.46 19.04c.2.07.54.07.78.07 2.14 0 4.01-2.11 4.01-8.43 0-4.69-1.22-7.55-3.91-7.55-.31 0-.61 0-.88.1v15.81zM125.5 245.79h-5.24v6.19h5.92v3.88h-10.37v-22.91h9.96v3.88h-5.51v5.27h5.24v3.69zM129.2 255.85v-22.91h4.08l3.54 8.97c.68 1.77 1.8 4.73 2.45 6.7h.07c-.14-2.41-.44-6.39-.44-10.61v-5.07h3.91v22.91h-4.08l-3.5-8.7c-.75-1.94-1.8-4.83-2.31-6.9h-.07c.1 2.31.27 5.85.27 10.44v5.17h-3.92zM149.23 237.05h-4.05v-4.11h12.58v4.11h-4.08v18.8h-4.45v-18.8zM164.56 232.94v22.91h-4.45v-22.91h4.45zM171.02 237.05h-4.05v-4.11h12.58v4.11h-4.08v18.8h-4.45v-18.8zM185.61 255.85v-8.77l-5.03-14.14h4.76l1.56 5.47c.41 1.46.85 3.16 1.19 4.86h.07c.27-1.67.65-3.33 1.05-4.96l1.36-5.37h4.62l-5.13 13.97v8.94h-4.45z"/></svg>